<svg xmlns="http://www.w3.org/2000/svg" xmlns:xlink="http://www.w3.org/1999/xlink" width="500" zoomAndPan="magnify" viewBox="0 0 375 374.999991" height="500" preserveAspectRatio="xMidYMid meet" version="1.0"><defs><clipPath id="8439071d54"><path d="M 113 145.523438 L 262.125 145.523438 L 262.125 229.523438 L 113 229.523438 Z M 113 145.523438 " clip-rule="nonzero"/></clipPath><clipPath id="e1a1631280"><path d="M 70.605469 187.203125 L 187.277344 70.53125 L 304.480469 187.734375 L 187.808594 304.40625 Z M 70.605469 187.203125 " clip-rule="nonzero"/></clipPath><clipPath id="b814871323"><path d="M 123 176 L 130 176 L 130 199 L 123 199 Z M 123 176 " clip-rule="nonzero"/></clipPath><clipPath id="aabf0e79a4"><path d="M 70.605469 187.203125 L 187.277344 70.53125 L 304.480469 187.734375 L 187.808594 304.40625 Z M 70.605469 187.203125 " clip-rule="nonzero"/></clipPath><clipPath id="78d5f1dfc4"><path d="M 234 179 L 252 179 L 252 196 L 234 196 Z M 234 179 " clip-rule="nonzero"/></clipPath><clipPath id="149ff75932"><path d="M 70.605469 187.203125 L 187.277344 70.53125 L 304.480469 187.734375 L 187.808594 304.40625 Z M 70.605469 187.203125 " clip-rule="nonzero"/></clipPath><clipPath id="c810f398f0"><path d="M 199.5625 164.644531 L 222.8125 164.644531 L 222.8125 210.394531 L 199.5625 210.394531 Z M 199.5625 164.644531 " clip-rule="nonzero"/></clipPath><clipPath id="5ca328e268"><path d="M 149.570312 164.644531 L 172.820312 164.644531 L 172.820312 210.394531 L 149.570312 210.394531 Z M 149.570312 164.644531 " clip-rule="nonzero"/></clipPath></defs><g clip-path="url(#8439071d54)"><g clip-path="url(#e1a1631280)"><path fill="#ffffff" d="M 251.148438 230.132812 L 123.910156 230.167969 C 117.910156 230.171875 113.027344 225.289062 113.03125 219.289062 L 113.046875 155.667969 C 113.046875 149.664062 117.929688 144.78125 123.933594 144.777344 L 251.167969 144.742188 C 257.171875 144.738281 262.050781 149.621094 262.050781 155.625 L 262.035156 219.246094 C 262.039062 225.253906 257.15625 230.136719 251.148438 230.132812 Z M 118.914062 155.660156 L 118.898438 219.28125 C 118.894531 222.046875 121.148438 224.296875 123.914062 224.296875 L 251.15625 224.265625 C 253.921875 224.265625 256.171875 222.011719 256.171875 219.246094 L 256.1875 155.625 C 256.191406 152.859375 253.9375 150.609375 251.171875 150.609375 L 123.933594 150.640625 C 121.175781 150.652344 118.917969 152.886719 118.914062 155.660156 Z M 118.914062 155.660156 " fill-opacity="1" fill-rule="nonzero"/></g></g><g clip-path="url(#b814871323)"><g clip-path="url(#aabf0e79a4)"><path fill="#ffffff" d="M 123.640625 195.421875 L 123.644531 179.515625 C 123.644531 175.632812 129.511719 175.625 129.515625 179.511719 L 129.507812 195.425781 C 129.503906 199.273438 123.632812 199.34375 123.640625 195.421875 Z M 123.640625 195.421875 " fill-opacity="1" fill-rule="nonzero"/></g></g><g clip-path="url(#78d5f1dfc4)"><g clip-path="url(#149ff75932)"><path fill="#ffffff" d="M 243.207031 195.679688 C 238.671875 195.679688 234.972656 191.984375 234.972656 187.445312 C 234.96875 182.902344 238.667969 179.203125 243.210938 179.210938 C 247.75 179.207031 251.445312 182.90625 251.445312 187.441406 C 251.445312 191.980469 247.746094 195.679688 243.207031 195.679688 Z M 240.839844 187.4375 C 240.839844 188.742188 241.902344 189.800781 243.210938 189.808594 C 244.511719 189.804688 245.570312 188.746094 245.578125 187.4375 C 245.578125 186.136719 244.515625 185.078125 243.210938 185.070312 C 241.902344 185.078125 240.84375 186.136719 240.839844 187.4375 Z M 240.839844 187.4375 " fill-opacity="1" fill-rule="nonzero"/></g></g><g clip-path="url(#c810f398f0)"><path fill="#3cae75" d="M 199.5625 194.632812 L 204.535156 194.632812 L 204.535156 164.671875 L 217.835938 164.671875 L 217.835938 194.632812 L 222.8125 194.632812 L 211.1875 210.367188 Z M 199.5625 194.632812 " fill-opacity="1" fill-rule="nonzero"/></g><g clip-path="url(#5ca328e268)"><path fill="#3cae75" d="M 149.570312 194.632812 L 154.546875 194.632812 L 154.546875 164.671875 L 167.847656 164.671875 L 167.847656 194.632812 L 172.820312 194.632812 L 161.195312 210.367188 Z M 149.570312 194.632812 " fill-opacity="1" fill-rule="nonzero"/></g></svg>