<svg width="512" height="512" viewBox="0 0 512 512" fill="none" xmlns="http://www.w3.org/2000/svg">
<path d="M63.998 86.0041L85.996 64.0061L448 426.01L426.002 448.008L63.998 86.0041ZM259.34 192.09L319.91 252.66C319.069 236.869 312.417 221.947 301.235 210.765C290.053 199.583 275.131 192.932 259.34 192.09ZM252.66 319.91L192.09 259.34C192.931 275.131 199.583 290.053 210.765 301.235C221.947 312.417 236.869 319.069 252.66 319.91Z" fill="white"/>
<path d="M256 352C241.231 352.001 226.661 348.594 213.424 342.045C200.187 335.496 188.639 325.981 179.679 314.24C170.72 302.499 164.59 288.85 161.766 274.354C158.943 259.857 159.502 244.905 163.4 230.66L94.33 161.58C66.12 187.42 39.24 221.14 16 256C42.42 300 78.56 345.24 116.2 371.18C159.38 400.92 206.33 416 255.76 416C282.773 416.019 309.584 411.349 335 402.2L281.39 348.6C273.117 350.864 264.577 352.008 256 352ZM256 160C270.769 159.999 285.339 163.406 298.576 169.955C311.813 176.504 323.361 186.019 332.321 197.76C341.28 209.501 347.41 223.15 350.234 237.646C353.057 252.143 352.498 267.095 348.6 281.34L419.26 352C448.41 325.75 475.33 290.44 496 256C469.62 212.57 433.1 167.44 394.82 141.18C351.1 111.2 304.31 96 255.76 96C229.044 96.0383 202.553 100.879 177.55 110.29L230.66 163.4C238.917 161.14 247.439 159.997 256 160Z" fill="white"/>
</svg>
