<svg width="512" height="512" viewBox="0 0 512 512" fill="none" xmlns="http://www.w3.org/2000/svg">
<path d="M256 56C145.72 56 56 145.72 56 256C56 366.28 145.72 456 256 456C366.28 456 456 366.28 456 256C456 145.72 366.28 56 256 56ZM256 138C261.142 138 266.169 139.525 270.445 142.382C274.721 145.239 278.053 149.299 280.021 154.05C281.989 158.801 282.504 164.029 281.5 169.072C280.497 174.116 278.021 178.749 274.385 182.385C270.749 186.021 266.116 188.497 261.072 189.5C256.029 190.504 250.801 189.989 246.05 188.021C241.299 186.053 237.239 182.721 234.382 178.445C231.525 174.169 230 169.142 230 164C230 157.104 232.739 150.491 237.615 145.615C242.491 140.739 249.104 138 256 138ZM304 364H216C211.757 364 207.687 362.314 204.686 359.314C201.686 356.313 200 352.243 200 348C200 343.757 201.686 339.687 204.686 336.686C207.687 333.686 211.757 332 216 332H244V244H228C223.757 244 219.687 242.314 216.686 239.314C213.686 236.313 212 232.243 212 228C212 223.757 213.686 219.687 216.686 216.686C219.687 213.686 223.757 212 228 212H260C264.243 212 268.313 213.686 271.314 216.686C274.314 219.687 276 223.757 276 228V332H304C308.243 332 312.313 333.686 315.314 336.686C318.314 339.687 320 343.757 320 348C320 352.243 318.314 356.313 315.314 359.314C312.313 362.314 308.243 364 304 364Z" fill="white"/>
</svg>
