<svg xmlns="http://www.w3.org/2000/svg" xmlns:xlink="http://www.w3.org/1999/xlink" width="500" zoomAndPan="magnify" viewBox="0 0 375 374.999991" height="500" preserveAspectRatio="xMidYMid meet" version="1.0"><defs><clipPath id="17d881967e"><path d="M 156 99 L 235 99 L 235 125 L 156 125 Z M 156 99 " clip-rule="nonzero"/></clipPath><clipPath id="87e3a8b7a8"><path d="M 81.699219 178.816406 L 187.234375 73.28125 L 293.300781 179.347656 L 187.765625 284.882812 Z M 81.699219 178.816406 " clip-rule="nonzero"/></clipPath><clipPath id="50ed15d766"><path d="M 81.699219 178.816406 L 187.234375 73.28125 L 293.300781 179.347656 L 187.765625 284.882812 Z M 81.699219 178.816406 " clip-rule="nonzero"/></clipPath><clipPath id="6893bbc1b3"><path d="M 140 233 L 219 233 L 219 259 L 140 259 Z M 140 233 " clip-rule="nonzero"/></clipPath><clipPath id="0834a04b47"><path d="M 81.699219 178.816406 L 187.234375 73.28125 L 293.300781 179.347656 L 187.765625 284.882812 Z M 81.699219 178.816406 " clip-rule="nonzero"/></clipPath><clipPath id="1df3fcc549"><path d="M 81.699219 178.816406 L 187.234375 73.28125 L 293.300781 179.347656 L 187.765625 284.882812 Z M 81.699219 178.816406 " clip-rule="nonzero"/></clipPath><clipPath id="7d3b8f4644"><path d="M 120 140 L 255 140 L 255 218 L 120 218 Z M 120 140 " clip-rule="nonzero"/></clipPath><clipPath id="4a4ee1fbab"><path d="M 81.699219 178.816406 L 187.234375 73.28125 L 293.300781 179.347656 L 187.765625 284.882812 Z M 81.699219 178.816406 " clip-rule="nonzero"/></clipPath><clipPath id="de729d230c"><path d="M 81.699219 178.816406 L 187.234375 73.28125 L 293.300781 179.347656 L 187.765625 284.882812 Z M 81.699219 178.816406 " clip-rule="nonzero"/></clipPath><clipPath id="996559519c"><path d="M 129 169 L 135 169 L 135 189 L 129 189 Z M 129 169 " clip-rule="nonzero"/></clipPath><clipPath id="03494d7a61"><path d="M 81.699219 178.816406 L 187.234375 73.28125 L 293.300781 179.347656 L 187.765625 284.882812 Z M 81.699219 178.816406 " clip-rule="nonzero"/></clipPath><clipPath id="b3bfa7dc09"><path d="M 81.699219 178.816406 L 187.234375 73.28125 L 293.300781 179.347656 L 187.765625 284.882812 Z M 81.699219 178.816406 " clip-rule="nonzero"/></clipPath><clipPath id="bd30598dff"><path d="M 230 171 L 246 171 L 246 187 L 230 187 Z M 230 171 " clip-rule="nonzero"/></clipPath><clipPath id="4b00c58893"><path d="M 81.699219 178.816406 L 187.234375 73.28125 L 293.300781 179.347656 L 187.765625 284.882812 Z M 81.699219 178.816406 " clip-rule="nonzero"/></clipPath><clipPath id="821c7f2b39"><path d="M 81.699219 178.816406 L 187.234375 73.28125 L 293.300781 179.347656 L 187.765625 284.882812 Z M 81.699219 178.816406 " clip-rule="nonzero"/></clipPath></defs><g clip-path="url(#17d881967e)"><g clip-path="url(#87e3a8b7a8)"><g clip-path="url(#50ed15d766)"><path fill="#ffffff" d="M 233.628906 120.214844 C 236.375 122.421875 233.0625 126.574219 230.296875 124.351562 C 212.855469 110.3125 187.945312 106.363281 165.984375 116.785156 L 175.621094 119.714844 C 179.007812 120.75 177.421875 125.816406 174.070312 124.796875 L 159.652344 120.410156 C 157.585938 119.785156 156.445312 117.617188 157.074219 115.585938 L 161.433594 101.46875 C 162.46875 98.109375 167.550781 99.679688 166.507812 103.03125 L 163.75 111.972656 C 187.027344 101.011719 214.105469 104.5 233.628906 120.214844 Z M 233.628906 120.214844 " fill-opacity="1" fill-rule="nonzero"/></g></g></g><g clip-path="url(#6893bbc1b3)"><g clip-path="url(#0834a04b47)"><g clip-path="url(#1df3fcc549)"><path fill="#ffffff" d="M 217.914062 242.558594 L 213.554688 256.675781 C 212.53125 259.988281 207.429688 258.503906 208.480469 255.109375 L 211.238281 246.167969 C 187.964844 257.136719 160.882812 253.640625 141.359375 237.925781 C 138.613281 235.722656 141.972656 231.601562 144.691406 233.789062 C 162.132812 247.828125 187.042969 251.777344 209.003906 241.359375 L 199.367188 238.425781 C 196.011719 237.402344 197.558594 232.320312 200.917969 233.34375 L 215.335938 237.730469 C 217.398438 238.363281 218.546875 240.527344 217.914062 242.558594 Z M 217.914062 242.558594 " fill-opacity="1" fill-rule="nonzero"/></g></g></g><g clip-path="url(#7d3b8f4644)"><g clip-path="url(#4a4ee1fbab)"><g clip-path="url(#de729d230c)"><path fill="#ffffff" d="M 245.058594 217.695312 L 129.9375 217.699219 C 124.507812 217.699219 120.089844 213.28125 120.089844 207.851562 L 120.089844 150.289062 C 120.089844 144.859375 124.507812 140.441406 129.9375 140.441406 L 245.058594 140.4375 C 250.488281 140.4375 254.90625 144.855469 254.90625 150.285156 L 254.90625 207.847656 C 254.910156 213.28125 250.492188 217.699219 245.058594 217.695312 Z M 125.398438 150.285156 L 125.398438 207.847656 C 125.398438 210.351562 127.433594 212.386719 129.9375 212.386719 L 245.0625 212.386719 C 247.566406 212.386719 249.601562 210.351562 249.601562 207.847656 L 249.601562 150.285156 C 249.601562 147.78125 247.566406 145.746094 245.0625 145.746094 L 129.9375 145.746094 C 127.445312 145.753906 125.402344 147.777344 125.398438 150.285156 Z M 125.398438 150.285156 " fill-opacity="1" fill-rule="nonzero"/></g></g></g><g clip-path="url(#996559519c)"><g clip-path="url(#03494d7a61)"><g clip-path="url(#b3bfa7dc09)"><path fill="#ffffff" d="M 129.683594 186.261719 L 129.683594 171.871094 C 129.683594 168.359375 134.992188 168.351562 134.996094 171.871094 L 134.992188 186.269531 C 134.992188 189.746094 129.679688 189.808594 129.683594 186.261719 Z M 129.683594 186.261719 " fill-opacity="1" fill-rule="nonzero"/></g></g></g><g clip-path="url(#bd30598dff)"><g clip-path="url(#4b00c58893)"><g clip-path="url(#821c7f2b39)"><path fill="#ffffff" d="M 237.867188 186.523438 C 233.761719 186.523438 230.414062 183.175781 230.414062 179.070312 C 230.410156 174.960938 233.753906 171.613281 237.867188 171.621094 C 241.96875 171.621094 245.316406 174.964844 245.316406 179.070312 C 245.316406 183.175781 241.96875 186.523438 237.867188 186.523438 Z M 235.722656 179.066406 C 235.722656 180.242188 236.683594 181.203125 237.867188 181.207031 C 239.042969 181.207031 240.003906 180.25 240.007812 179.066406 C 240.007812 177.886719 239.046875 176.929688 237.867188 176.921875 C 236.683594 176.929688 235.722656 177.886719 235.722656 179.066406 Z M 235.722656 179.066406 " fill-opacity="1" fill-rule="nonzero"/></g></g></g></svg>